<?xml version="1.0" encoding="UTF-8" standalone="no"?>
<svg
   xmlns:dc="http://purl.org/dc/elements/1.1/"
   xmlns:cc="http://creativecommons.org/ns#"
   xmlns:rdf="http://www.w3.org/1999/02/22-rdf-syntax-ns#"
   xmlns:svg="http://www.w3.org/2000/svg"
   xmlns="http://www.w3.org/2000/svg"
   xmlns:sodipodi="http://sodipodi.sourceforge.net/DTD/sodipodi-0.dtd"
   xmlns:inkscape="http://www.inkscape.org/namespaces/inkscape"
   width="137.04031mm"
   height="60.0686mm"
   viewBox="0 0 137.04031 60.0686"
   version="1.1"
   id="svg8"
   inkscape:version="1.0.2 (e86c870879, 2021-01-15, custom)"
   sodipodi:docname="logo-vector-ae86.svg"
   inkscape:export-filename="D:\Documents\Logo AE86\logo-transparente.png"
   inkscape:export-xdpi="96"
   inkscape:export-ydpi="96">
  <defs
     id="defs2">
    <rect
       x="111.45139"
       y="6.4144688"
       width="19.510675"
       height="15.768902"
       id="rect845" />
    <rect
       x="6.9490075"
       y="49.177593"
       width="131.4966"
       height="24.588797"
       id="rect862" />
    <filter
       inkscape:collect="always"
       style="color-interpolation-filters:sRGB"
       id="filter853"
       x="-3.4695067e-06"
       width="1.0000069"
       y="-7.7856603e-06"
       height="1.0000156">
      <feGaussianBlur
         inkscape:collect="always"
         stdDeviation="0.0001961078"
         id="feGaussianBlur855" />
    </filter>
    <rect
       x="6.9490075"
       y="49.177593"
       width="131.4966"
       height="24.588797"
       id="rect862-2" />
    <rect
       x="6.9490075"
       y="49.177593"
       width="131.4966"
       height="24.588797"
       id="rect858" />
    <rect
       x="6.9490075"
       y="49.177593"
       width="131.4966"
       height="24.588797"
       id="rect862-2-8" />
    <rect
       x="6.9490075"
       y="49.177593"
       width="131.4966"
       height="24.588797"
       id="rect894" />
  </defs>
  <sodipodi:namedview
     id="base"
     pagecolor="#ffffff"
     bordercolor="#666666"
     borderopacity="1.0"
     inkscape:pageopacity="0.0"
     inkscape:pageshadow="2"
     inkscape:zoom="1.4"
     inkscape:cx="227.47521"
     inkscape:cy="47.402995"
     inkscape:document-units="mm"
     inkscape:current-layer="layer7"
     inkscape:document-rotation="0"
     showgrid="false"
     inkscape:window-width="1440"
     inkscape:window-height="837"
     inkscape:window-x="-8"
     inkscape:window-y="-8"
     inkscape:window-maximized="1" />
  <metadata
     id="metadata5">
    <rdf:RDF>
      <cc:Work
         rdf:about="">
        <dc:format>image/svg+xml</dc:format>
        <dc:type
           rdf:resource="http://purl.org/dc/dcmitype/StillImage" />
        <dc:title />
      </cc:Work>
    </rdf:RDF>
  </metadata>
  <g
     inkscape:groupmode="layer"
     id="layer7"
     inkscape:label="Fondo"
     style="display:none">
    <rect
       style="fill:#7e0202;fill-opacity:1;stroke:#ffffff;stroke-width:1;stroke-linecap:round;stroke-linejoin:round;stroke-miterlimit:4;stroke-dasharray:none;stroke-opacity:1;paint-order:fill markers stroke"
       id="rect1138"
       width="137.58333"
       height="61.043152"
       x="0"
       y="-0.1889881" />
  </g>
  <g
     inkscape:groupmode="layer"
     id="layer1"
     inkscape:label="Barra azul">
    <path
       style="display:inline;opacity:0.996;fill:#02027e;fill-opacity:0.996078;stroke:#ffffff;stroke-width:1.03584892;stroke-linecap:butt;stroke-linejoin:round;stroke-opacity:1;filter:url(#filter853);stroke-miterlimit:4;stroke-dasharray:none;paint-order:fill markers stroke"
       d="m 1.5901864,47.103889 c 2.62476,-8.61069 2.309554,-19.62681 13.0860346,-28.63841 3.800385,-3.85805 15.635755,-10.8714304 34.252699,-9.3023404 24.373655,2.4184204 46.094755,17.0194104 58.28269,36.9958104 1.74992,3.55776 2.96529,6.71462 4.84884,11.07418 C 110.8979,38.277837 101.73295,25.817645 91.926495,17.054789 86.858775,12.627929 70.565725,-0.35156111 41.84465,1.3687689 25.57223,3.0180189 16.916991,10.279929 13.874412,12.330079 2.1102221,22.279004 0.90079253,33.328359 1.5901864,47.103889 Z"
       id="path847"
       sodipodi:nodetypes="ccccccccc"
       transform="matrix(0.96539175,0,0,0.96539175,0.20155896,-0.14982638)" />
  </g>
  <g
     inkscape:groupmode="layer"
     id="layer3"
     inkscape:label="Barra gris">
    <path
       style="display:inline;opacity:0.994;fill:#c0c0c0;fill-opacity:0.996078;stroke:#ffffff;stroke-width:1;stroke-linecap:butt;stroke-linejoin:miter;stroke-opacity:1;stroke-miterlimit:4;stroke-dasharray:none"
       d="m 8.1223759,36.050359 c 3.6582171,4.574181 5.6421121,7.202669 13.1033161,11.013333 3.182488,1.625394 5.37497,2.393852 8.283491,3.238349 2.908523,0.844497 6.533092,1.829537 13.095777,2.533491 9.701347,1.040624 16.574879,0.183279 21.079976,-0.433164 4.505097,-0.616443 5.674196,-0.798468 12.868353,-2.406511 4.471482,-0.99947 8.256378,-2.325567 11.130494,-3.530529 2.874116,-1.204962 4.90197,-2.546808 7.794525,-4.09381 4.971692,-2.637888 9.634372,-5.784185 13.327792,-9.181349 3.69342,-3.397163 4.80496,-4.852023 6.86722,-8.622382 1.10076,-1.930903 2.84657,-5.925964 3.94732,-7.856868 -0.46371,3.238444 -1.15549,6.340052 -2.21217,9.259213 0,0 -7.6628,22.486658 -41.59805,30.149455 C 41.875172,63.782384 24.360208,54.295114 17.062306,49.733924 9.7644043,45.172736 8.1223759,36.050359 8.1223759,36.050359 Z"
       id="path858"
       sodipodi:nodetypes="csssssscscccssc" />
  </g>
  <g
     inkscape:groupmode="layer"
     id="layer4"
     inkscape:label="86">
    <text
       xml:space="preserve"
       id="text843"
       style="font-style:normal;font-weight:normal;font-size:12.3472px;line-height:1.25;font-family:sans-serif;white-space:pre;shape-inside:url(#rect845);display:inline;opacity:0.994;fill:#000000;fill-opacity:1;stroke:#ffffff;stroke-width:1.76094316;stroke-miterlimit:4;stroke-dasharray:none;stroke-opacity:1;paint-order:stroke fill markers;stroke-linejoin:bevel;"
       transform="matrix(0.96539175,0,0,0.96539175,-8.0550743,-1.4399253)"><tspan
         x="111.45117"
         y="17.617864"><tspan
           style="font-style:normal;font-variant:normal;font-weight:normal;font-stretch:normal;font-size:12.3472px;font-family:Serpentine;-inkscape-font-specification:Serpentine;stroke:#ffffff;stroke-width:1.76094;stroke-linejoin:bevel;stroke-miterlimit:4;stroke-dasharray:none;stroke-opacity:1;paint-order:stroke fill markers">86</tspan></tspan></text>
  </g>
  <g
     inkscape:groupmode="layer"
     id="layer2"
     inkscape:label="Alex Estudio"
     style="display:inline;opacity:0.994"
     transform="translate(-1.4356255,-1.2123183)">
    <text
       xml:space="preserve"
       id="text860"
       style="font-style:normal;font-weight:normal;font-size:17.6389px;line-height:1.25;font-family:sans-serif;white-space:pre;shape-inside:url(#rect862-2-8);display:inline;fill:#000000;fill-opacity:1;stroke:#ffffff;stroke-width:1.86452805;stroke-miterlimit:4;stroke-dasharray:none;stroke-opacity:1;paint-order:markers stroke fill;"
       transform="matrix(0.96539175,0,0,0.96539175,6.0699097,-25.252649)"><tspan
         x="6.9492188"
         y="65.662527"><tspan
           style="font-style:italic;font-variant:normal;font-weight:bold;font-stretch:normal;font-size:17.6389px;font-family:SerpentineDBol;-inkscape-font-specification:'SerpentineDBol Bold Italic';stroke:#ffffff;stroke-width:1.86453;stroke-miterlimit:4;stroke-dasharray:none;stroke-opacity:1;paint-order:markers stroke fill">Alex Estudio</tspan></tspan></text>
  </g>
</svg>
